<?xml version="1.0" encoding="utf-8"?>
<!-- Svg Vector Icons : http://www.onlinewebfonts.com/icon -->
<!DOCTYPE svg PUBLIC "-//W3C//DTD SVG 1.1//EN" "http://www.w3.org/Graphics/SVG/1.1/DTD/svg11.dtd">
<svg fill="white" version="1.1" xmlns="http://www.w3.org/2000/svg" xmlns:xlink="http://www.w3.org/1999/xlink" x="0px" y="0px" viewBox="0 0 1000 1000" enable-background="new 0 0 1000 1000" xml:space="preserve">
<metadata> Svg Vector Icons : http://www.onlinewebfonts.com/icon </metadata>
<g><g transform="translate(0.000000,88.000000) scale(0.100000,-0.100000)"><path d="M1713.4,501.6c-367.5-356.4-367.5-868.6,0-1225c545.7-556.8,1503.4-167,1503.4,612.5S2259.1,1058.4,1713.4,501.6z"/><path d="M4386.1,501.6c-556.8-545.7-167-1503.4,612.5-1503.4c456.7,0,890.9,434.3,890.9,890.9S5455.3,780,4998.6,780C4787.1,780,4553.1,679.8,4386.1,501.6z"/><path d="M7058.8,501.6c-178.1-167-278.4-400.9-278.4-612.5s100.3-445.5,278.4-612.5c545.7-556.8,1503.4-167,1503.4,612.5c0,456.6-434.2,890.9-890.9,890.9C7459.8,780,7225.9,679.8,7058.8,501.6z"/><path d="M1713.4-2171.1c-556.8-545.7-167.1-1503.4,612.5-1503.4c456.7,0,890.9,434.3,890.9,890.9C3216.8-2004.1,2259.1-1614.3,1713.4-2171.1z"/><path d="M4386.1-2171.1c-556.8-545.7-167-1503.4,612.5-1503.4c456.7,0,890.9,434.3,890.9,890.9c0,211.6-100.2,445.5-278.4,612.5c-167.1,178.2-400.9,278.4-612.5,278.4C4787.1-1892.7,4553.1-1992.9,4386.1-2171.1z"/><path d="M7058.8-2171.1c-178.1-167-278.4-400.9-278.4-612.5c0-211.6,100.3-445.5,278.4-612.5c167-178.2,401-278.4,612.5-278.4c211.6,0,445.4,100.2,612.5,278.4c178.2,167.1,278.4,400.9,278.4,612.5c0,211.6-100.2,445.5-278.4,612.5c-167.1,178.2-400.9,278.4-612.5,278.4C7459.8-1892.7,7225.9-1992.9,7058.8-2171.1z"/><path d="M1713.4-4843.9c-367.5-356.4-367.5-868.6,0-1225c545.7-556.8,1503.4-167.1,1503.4,612.5c0,456.5-434.3,890.9-890.9,890.9C2114.3-4565.4,1880.4-4665.7,1713.4-4843.9z"/><path d="M4386.1-4843.9c-556.8-545.7-167-1503.4,612.5-1503.4c456.7,0,890.9,434.4,890.9,890.9c0,211.6-100.2,445.4-278.4,612.5c-167.1,178.1-400.9,278.4-612.5,278.4C4787.1-4565.4,4553.1-4665.7,4386.1-4843.9z"/><path d="M7058.8-4843.9c-178.1-167.1-278.4-400.9-278.4-612.5c0-779.6,957.8-1169.3,1503.4-612.5c178.2,167,278.4,400.9,278.4,612.5s-100.2,445.4-278.4,612.5c-167.1,178.1-400.9,278.4-612.5,278.4C7459.8-4565.4,7225.9-4665.7,7058.8-4843.9z"/><path d="M4386.1-7516.6c-556.8-545.7-167-1503.4,612.5-1503.4c456.7,0,890.9,434.4,890.9,890.9c0,211.6-100.2,445.5-278.4,612.5c-167.1,178.1-400.9,278.4-612.5,278.4C4787.1-7238.2,4553.1-7338.4,4386.1-7516.6z"/></g></g>
</svg>