<?xml version="1.0" encoding="iso-8859-1"?>
<!-- Generator: Adobe Illustrator 19.0.0, SVG Export Plug-In . SVG Version: 6.00 Build 0)  -->
<svg xmlns="http://www.w3.org/2000/svg" xmlns:xlink="http://www.w3.org/1999/xlink" version="1.1" id="Capa_1" x="0px" y="0px" viewBox="0 0 297.287 297.287" style="enable-background:new 0 0 297.287 297.287;" xml:space="preserve" width="512px" height="512px">
<g>
	<path d="M220.8,135.037c-0.517-0.021-51.927-2.362-79.8-19.086c-23.107-13.864-25.561-29.59-25.561-35.708   c0-18.166,14.495-32.396,32.973-32.396c18.169,0,32.962,15.001,32.962,33.44c0,4.418,3.592,8,8.01,8h31.846   c0.008,0.001,0.016,0.001,0.02,0c4.419,0,8-3.582,8-8c0-0.202-0.007-0.402-0.021-0.6C228.907,36.14,192.802,0,148.467,0   c-44.338,0-80.41,36.367-80.41,81.067l-0.02,208.219c0,2.122,0.843,4.157,2.343,5.657c1.5,1.501,3.535,2.344,5.657,2.344h144.597   c4.418,0,7.667-3.582,7.667-8V143.03C228.301,138.742,225.085,135.217,220.8,135.037z M148.633,165.145   c27.394,0,49.68,22.286,49.68,49.679c0,27.394-22.286,49.68-49.68,49.68c-27.393,0-49.678-22.286-49.678-49.68   C98.955,187.431,121.24,165.145,148.633,165.145z" fill="#FFFFFF"/>
	<path d="M116.033,223.287c3.764,14.487,16.951,25.216,32.6,25.216c15.648,0,28.838-10.729,32.602-25.216H116.033z" fill="#FFFFFF"/>
	<path d="M181.452,207.287c-3.434-14.953-16.84-26.143-32.819-26.143c-15.98,0-29.385,11.189-32.817,26.143H181.452z" fill="#FFFFFF"/>
</g>
<g>
</g>
<g>
</g>
<g>
</g>
<g>
</g>
<g>
</g>
<g>
</g>
<g>
</g>
<g>
</g>
<g>
</g>
<g>
</g>
<g>
</g>
<g>
</g>
<g>
</g>
<g>
</g>
<g>
</g>
</svg>
