<?xml version="1.0" encoding="iso-8859-1"?>
<!-- Generator: Adobe Illustrator 18.1.1, SVG Export Plug-In . SVG Version: 6.00 Build 0)  -->
<svg xmlns="http://www.w3.org/2000/svg" xmlns:xlink="http://www.w3.org/1999/xlink" version="1.1" id="Capa_1" x="0px" y="0px" viewBox="0 0 525.153 525.153" style="enable-background:new 0 0 525.153 525.153;" xml:space="preserve" width="512px" height="512px">
<g>
	<path d="M408.394,0h-58.248v204.197h58.248V0z M495.963,364.675c-36.454,0-71.443-5.799-104.155-16.586   c-10.219-3.282-21.575-0.897-29.737,6.915l-64.178,64.178c-82.558-41.903-150.237-109.363-192.271-192.162l64.178-64.484   c8.162-7.615,10.547-18.971,7.265-29.19c-10.788-32.713-16.586-67.701-16.586-104.155c0-15.995-13.194-29.19-29.19-29.19H29.19   C13.194,0,0,13.194,0,29.19c0,273.955,222.008,495.963,495.963,495.963c15.995,0,29.19-13.194,29.19-29.19V393.864   C525.153,377.869,511.958,364.675,495.963,364.675z M466.773,0v204.197h58.379V0H466.773z" fill="#FFFFFF"/>
</g>
<g>
</g>
<g>
</g>
<g>
</g>
<g>
</g>
<g>
</g>
<g>
</g>
<g>
</g>
<g>
</g>
<g>
</g>
<g>
</g>
<g>
</g>
<g>
</g>
<g>
</g>
<g>
</g>
<g>
</g>
</svg>
