<?xml version="1.0" encoding="iso-8859-1"?>
<!-- Generator: Adobe Illustrator 19.0.0, SVG Export Plug-In . SVG Version: 6.00 Build 0)  -->
<svg xmlns="http://www.w3.org/2000/svg" xmlns:xlink="http://www.w3.org/1999/xlink" version="1.1" id="Capa_1" x="0px" y="0px" viewBox="0 0 426.667 426.667" style="enable-background:new 0 0 426.667 426.667;" xml:space="preserve" width="512px" height="512px">
<g>
	<g>
		<g>
			<polygon points="320,213.333 426.667,106.667 320,0 320,64 234.667,64 234.667,149.333 320,149.333    " fill="#FFFFFF"/>
			<path d="M362.667,309.333c-26.56,0-52.16-4.267-76.16-12.16c-7.36-2.347-15.787-0.64-21.653,5.227l-46.933,47.04     c-60.48-30.72-109.76-80.107-140.587-140.48l46.933-47.04c5.867-5.867,7.573-14.293,5.227-21.653     C121.6,116.16,117.333,90.56,117.333,64c0-11.84-9.493-21.333-21.333-21.333H21.333C9.493,42.667,0,52.16,0,64     c0,200.32,162.347,362.667,362.667,362.667c11.84,0,21.333-9.493,21.333-21.333v-74.667     C384,318.827,374.507,309.333,362.667,309.333z" fill="#FFFFFF"/>
		</g>
	</g>
</g>
<g>
</g>
<g>
</g>
<g>
</g>
<g>
</g>
<g>
</g>
<g>
</g>
<g>
</g>
<g>
</g>
<g>
</g>
<g>
</g>
<g>
</g>
<g>
</g>
<g>
</g>
<g>
</g>
<g>
</g>
</svg>
