<?xml version="1.0" encoding="utf-8"?>
<!-- Svg Vector Icons : http://www.onlinewebfonts.com/icon -->
<!DOCTYPE svg PUBLIC "-//W3C//DTD SVG 1.1//EN" "http://www.w3.org/Graphics/SVG/1.1/DTD/svg11.dtd">
<svg fill="white" version="1.1" xmlns="http://www.w3.org/2000/svg" xmlns:xlink="http://www.w3.org/1999/xlink" x="0px" y="0px" viewBox="0 0 1000 1000" enable-background="new 0 0 1000 1000" xml:space="preserve">
<metadata> Svg Vector Icons : http://www.onlinewebfonts.com/icon </metadata>
<g><g transform="translate(0.000000,511.000000) scale(0.100000,-0.100000)"><path d="M1333.2,4966.3c-196-69.6-855.6-362.5-963.1-423.6c-86.4-52.7-181.2-168.6-233.9-292.9c-71.7-164.4-40-505.8,124.3-1361.4C660.9,814.6,1360.6-715.4,2412.2-1824c552.1-581.7,967.3-958.9,1376.2-1247.6c1178.1-830.4,2672.2-1367.8,4678.6-1679.6c491-78,634.3-61.1,843,90.6c103.3,73.8,158.1,174.9,402.5,741.8c179.1,417.3,187.6,438.3,187.6,590.1c0,193.9-52.7,318.2-185.5,446.8c-82.2,80.1-223.4,147.5-1260.2,594.3c-1154.9,499.5-1169.6,505.8-1315.1,505.8c-265.5,2.1-480.5-145.4-594.3-408.8l-52.7-124.4l-200.2,71.7c-775.5,282.4-1527.9,725-2128.5,1256c-177,156-274,265.6-501.6,556.4c-425.7,545.8-773.4,1171.7-1009.5,1829.3l-73.8,198.1l149.6,71.7c257.1,124.3,383.6,314,383.6,577.4c0,145.4-4.2,158.1-491,1285.6C2349,4157,2102.4,4707,2068.7,4755.5c-105.4,153.8-316.1,261.3-512.1,261.3C1508.1,5016.8,1409,4993.7,1333.2,4966.3z"/><path d="M7392.1,4230.8c-128.5-44.3-204.4-88.5-276.1-166.5c-71.7-73.8-156-225.5-156-278.2c0-16.9-35.8-42.1-78-54.8c-267.6-84.3-644.9-351.9-813.5-575.3c-139.1-181.2-149.6-202.3-381.4-746c-193.9-453.1-210.7-529-147.5-676.5c67.4-162.3,122.2-196,811.4-488.9l651.2-278.2v-333V298.2l54.8-42.1c73.8-59,145.4-54.8,208.6,8.4c50.6,48.5,52.7,63.2,52.7,311.9v259.2l69.5-8.4c111.7-12.6,240.3,33.7,326.7,118c65.4,63.2,118,164.4,274,531.1c105.4,248.7,206.6,505.8,225.5,569c84.3,284.5,54.8,701.8-71.7,1051.6l-61.1,168.6l52.7,130.7c126.4,311.9-14.7,666-318.2,800.8C7689.3,4251.8,7503.8,4266.6,7392.1,4230.8z M7775.7,3828.2c61.1-65.3,111.7-208.6,84.3-236c-6.3-6.3-54.8,23.2-107.5,63.2c-96.9,73.8-267.6,139.1-364.6,139.1c-59,0-61.1,23.2-6.3,73.8C7482.7,3961,7672.4,3942,7775.7,3828.2z"/><path d="M4606.1,3661.8c-320.3-351.9-394.1-927.3-177-1359.3c82.2-162.3,223.4-339.3,290.8-364.6c67.4-25.3,166.5,8.4,196,67.4c40,73.8,21.1,141.2-63.2,240.2c-297.2,343.5-305.6,792.4-21.1,1184.4c118,160.2,128.6,217.1,52.7,290.8C4799.9,3807.2,4726.2,3792.4,4606.1,3661.8z"/><path d="M9109.7,3674.4c-134.9-50.6-141.2-172.8-14.8-328.8c212.9-261.3,269.8-594.3,153.9-916.7c-33.7-96.9-88.5-181.2-185.5-295c-107.5-126.5-50.5-299.3,99.1-299.3c84.3,0,242.4,170.7,337.2,366.7c217,438.4,170.7,921-126.4,1315.1C9263.5,3661.8,9191.9,3703.9,9109.7,3674.4z"/><path d="M5036,3330.9c-40.1-33.7-99.1-122.2-130.7-193.9c-48.5-107.5-59-162.3-59-290.8c0-168.6,31.6-267.7,126.4-406.7c78-111.7,160.2-151.7,240.2-118c122.2,48.5,134.9,155.9,35.8,292.9c-54.8,73.8-69.5,115.9-75.9,219.2c-8.4,120.1-2.1,137,67.4,238.1c88.5,130.7,94.8,200.2,23.2,269.8C5196.2,3411,5122.4,3406.8,5036,3330.9z"/><path d="M8730.4,3295c-122.2-44.2-139.1-170.7-42.1-303.5c109.6-151.7,109.6-301.4,0-463.6c-80.1-120.1-82.2-210.7-8.4-269.8c86.4-67.4,151.7-56.9,242.4,42.1c233.9,255,217.1,722.9-33.7,942C8812.6,3309.8,8791.5,3316.1,8730.4,3295z"/></g></g>
</svg>